<?xml version="1.0" standalone="no"?>
<!DOCTYPE svg PUBLIC "-//W3C//DTD SVG 20010904//EN"
 "http://www.w3.org/TR/2001/REC-SVG-20010904/DTD/svg10.dtd">
<svg version="1.0" xmlns="http://www.w3.org/2000/svg"
 width="225.000000pt" height="225.000000pt" viewBox="0 0 225.000000 225.000000"
 preserveAspectRatio="xMidYMid meet">
<metadata>
Created by potrace 1.14, written by Peter Selinger 2001-2017
</metadata>
<g transform="translate(0.000000,225.000000) scale(0.100000,-0.100000)"
fill="#000000" stroke="none">
<path d="M921 2148 c0 -13 6 -45 13 -73 14 -61 39 -72 51 -23 l9 33 3 -32 c3
-24 9 -33 22 -33 13 0 21 13 30 53 6 28 14 62 17 75 5 16 2 22 -10 22 -9 0
-19 -13 -24 -32 l-9 -33 -7 33 c-9 38 -39 41 -44 4 -4 -26 -22 -20 -22 9 0 10
-7 19 -15 19 -9 0 -15 -9 -14 -22z"/>
<path d="M1080 2095 l0 -75 60 0 c68 0 82 17 18 22 l-43 3 -3 63 c-2 46 -7 62
-17 62 -12 0 -15 -16 -15 -75z"/>
<path d="M1210 2111 c0 -70 15 -91 64 -91 46 0 61 22 61 89 0 43 -3 56 -15 56
-11 0 -16 -14 -18 -55 -3 -58 -15 -74 -44 -59 -14 8 -18 22 -18 64 0 42 -3 55
-15 55 -12 0 -15 -13 -15 -59z"/>
<path d="M724 2031 c-204 -97 -371 -258 -469 -451 -125 -247 -142 -553 -44
-809 46 -121 139 -269 160 -255 5 3 -10 32 -32 66 -232 341 -221 795 25 1128
88 119 268 260 395 310 33 14 61 30 61 37 0 18 -6 17 -96 -26z"/>
<path d="M1430 2056 c0 -8 10 -18 23 -21 43 -13 163 -78 223 -120 86 -62 211
-198 266 -291 95 -161 133 -308 132 -509 0 -199 -48 -356 -156 -523 -41 -64
-45 -100 -4 -49 73 91 142 250 171 396 24 115 16 332 -15 446 -77 284 -277
520 -545 646 -94 44 -95 44 -95 25z"/>
<path d="M980 1930 c-47 -10 -123 -34 -170 -52 -210 -84 -426 -324 -446 -494
-4 -32 -10 -50 -15 -43 -12 21 -24 -78 -23 -196 1 -95 6 -127 38 -235 68 -229
170 -356 368 -456 37 -19 76 -34 87 -34 11 0 21 -4 23 -9 2 -6 15 -12 29 -15
15 -2 42 -13 60 -23 46 -24 301 -31 355 -8 40 16 42 27 12 49 l-23 17 24 -12
c13 -6 26 -20 28 -30 3 -10 9 -19 13 -19 20 0 178 74 190 90 3 3 16 14 30 23
22 15 23 17 5 18 -14 0 -10 4 12 12 98 37 253 224 253 307 0 18 3 21 12 12 8
-8 4 -26 -19 -72 -16 -33 -27 -60 -24 -60 16 0 52 73 67 135 9 39 25 99 36
134 23 77 36 254 20 273 -5 7 -19 51 -30 98 -11 47 -25 97 -31 113 -9 22 -8
27 4 27 8 0 15 4 15 9 0 15 -18 23 -25 11 -3 -5 -33 30 -65 79 -82 122 -208
240 -307 287 -168 79 -334 101 -503 64z m257 -546 c-3 -3 -12 -4 -19 -1 -8 3
-5 6 6 6 11 1 17 -2 13 -5z m-52 -14 c-11 -4 -29 -17 -40 -27 -14 -14 -27 -17
-40 -12 -18 7 -19 8 -2 8 11 1 30 10 44 21 14 11 33 20 42 19 12 0 11 -2 -4
-9z m140 -10 c13 -6 15 -9 5 -9 -8 0 -22 4 -30 9 -18 12 -2 12 25 0z m112 -31
c1 -20 1 -21 -3 -3 -4 18 -11 21 -42 19 -34 -2 -35 -2 -7 5 42 10 50 7 52 -21z
m136 14 c-7 -2 -19 -2 -25 0 -7 3 -2 5 12 5 14 0 19 -2 13 -5z m73 -52 c25
-35 1 -22 -31 17 -25 31 -26 34 -7 20 13 -9 30 -26 38 -37z m-1249 7 c-3 -7
-5 -2 -5 12 0 14 2 19 5 13 2 -7 2 -19 0 -25z m907 22 c-17 -6 -21 -16 -19
-39 2 -26 0 -29 -11 -20 -10 8 -11 15 -4 24 13 16 -19 30 -34 15 -7 -7 -6 -10
2 -10 7 0 2 -11 -10 -25 -12 -14 -26 -25 -32 -25 -6 0 -3 5 7 11 9 5 17 18 17
28 0 24 25 45 45 37 8 -3 15 -1 15 4 0 6 10 10 23 9 22 0 22 0 1 -9z m91 -10
c-4 -6 -13 -9 -20 -6 -7 2 -18 -1 -24 -7 -8 -8 -14 -8 -23 2 -11 10 -10 11 3
6 10 -4 20 -2 23 4 4 6 13 8 21 4 8 -3 15 1 15 8 0 7 3 10 6 6 3 -3 3 -11 -1
-17z m-341 -9 c4 -5 -3 -7 -14 -4 -23 6 -26 13 -6 13 8 0 17 -4 20 -9z m376
-11 c-8 -5 -19 -10 -25 -10 -5 0 -3 5 5 10 8 5 20 10 25 10 6 0 3 -5 -5 -10z
m-1076 -32 c4 -17 2 -28 -4 -28 -5 0 -10 14 -10 32 0 36 4 35 14 -4z m962 6
c1 -9 0 -13 -4 -10 -3 4 -7 14 -8 22 -1 9 0 13 4 10 3 -4 7 -14 8 -22z m-356
12 c0 -2 -8 -10 -17 -17 -16 -13 -17 -12 -4 4 13 16 21 21 21 13z m220 0 c0
-3 -4 -8 -10 -11 -5 -3 -10 -1 -10 4 0 6 5 11 10 11 6 0 10 -2 10 -4z m217
-28 c-3 -8 -6 -5 -6 6 -1 11 2 17 5 13 3 -3 4 -12 1 -19z m303 12 c0 -5 -7 -7
-15 -4 -8 4 -15 8 -15 10 0 2 7 4 15 4 8 0 15 -4 15 -10z m75 -52 c15 -22 25
-42 22 -44 -2 -3 -12 8 -22 23 -9 15 -29 38 -43 50 -24 20 -24 22 -5 17 12 -3
34 -24 48 -46z m-625 17 c-7 -8 -17 -15 -23 -15 -6 0 -2 7 9 15 25 19 30 19
14 0z m260 1 c0 -2 -7 -7 -16 -10 -8 -3 -12 -2 -9 4 6 10 25 14 25 6z m-1031
-36 c11 -24 11 -24 -3 -6 -9 11 -16 24 -16 30 0 12 5 7 19 -24z m572 -17 c13
-16 12 -17 -3 -4 -10 7 -18 15 -18 17 0 8 8 3 21 -13z m186 -5 c-3 -8 -6 -5
-6 6 -1 11 2 17 5 13 3 -3 4 -12 1 -19z m277 6 c3 -8 2 -12 -4 -9 -6 3 -10 10
-10 16 0 14 7 11 14 -7z m102 -21 c-3 -4 -6 -1 -6 5 0 8 -11 9 -32 5 -21 -4
-29 -3 -24 5 4 6 13 9 20 6 8 -3 17 0 21 7 6 8 10 7 17 -5 6 -10 7 -20 4 -23z
m-499 -32 c10 -6 13 -11 6 -11 -17 0 -43 29 -42 48 0 13 3 11 9 -5 5 -12 17
-26 27 -32z m38 29 c-1 -11 -4 -22 -7 -25 -4 -5 -4 34 1 43 4 8 7 -1 6 -18z
m269 12 c3 -5 -1 -9 -9 -9 -8 0 -12 4 -9 9 3 4 7 8 9 8 2 0 6 -4 9 -8z m311
-27 c0 -12 -8 -21 -20 -23 -11 -2 -26 -11 -32 -20 -7 -9 -13 -11 -13 -6 0 16
22 34 42 34 10 0 18 7 18 15 0 8 -7 15 -15 15 -8 0 -15 -5 -15 -12 0 -6 -3 -9
-6 -5 -10 10 7 28 24 25 10 -2 17 -12 17 -23z m-1245 3 c0 -9 4 -8 11 2 9 12
10 12 5 -3 -4 -14 7 -31 44 -64 28 -25 49 -47 47 -49 -4 -5 -127 112 -127 120
0 3 5 6 10 6 6 0 10 -6 10 -12z m1475 -139 c5 -44 5 -44 -8 7 -8 28 -23 68
-35 88 -12 21 -22 43 -22 49 0 29 60 -105 65 -144z m-294 128 c-1 -12 -15 -9
-19 4 -3 6 1 10 8 8 6 -3 11 -8 11 -12z m-451 -11 c0 -2 -8 -10 -17 -17 -16
-13 -17 -12 -4 4 13 16 21 21 21 13z m421 -14 c-7 -2 -18 1 -23 6 -8 8 -4 9
13 5 13 -4 18 -8 10 -11z m-1030 -39 c13 -16 12 -17 -3 -4 -10 7 -18 15 -18
17 0 8 8 3 21 -13z m1059 -2 c0 -5 -10 -11 -22 -13 -19 -2 -23 -9 -20 -33 1
-16 2 -39 2 -50 1 -10 5 -24 11 -31 7 -8 2 -10 -16 -6 -28 5 -44 22 -22 22 19
0 29 24 15 38 -17 17 -4 56 22 69 30 15 30 15 30 4z m-510 -5 c0 -2 -8 -10
-17 -17 -16 -13 -17 -12 -4 4 13 16 21 21 21 13z m-605 -36 c10 -11 16 -20 13
-20 -3 0 -13 9 -23 20 -10 11 -16 20 -13 20 3 0 13 -9 23 -20z m982 14 c-3 -3
-12 -4 -19 -1 -8 3 -5 6 6 6 11 1 17 -2 13 -5z m-158 -21 c-28 -38 -65 -76
-94 -96 -16 -12 -1 8 35 45 66 67 83 83 59 51z m444 -5 l15 -23 25 24 c15 13
33 21 41 18 16 -6 18 -47 3 -47 -5 0 -7 9 -4 20 3 12 0 20 -7 20 -6 0 -19 -9
-29 -20 -22 -26 -29 -25 -55 5 -12 14 -18 25 -13 25 5 0 15 -10 24 -22z m-53
-8 c-6 -12 -20 -20 -33 -19 -20 1 -20 2 -2 6 11 3 24 11 28 19 13 22 19 16 7
-6z m-1050 -30 c0 -5 46 -31 102 -59 56 -28 96 -51 89 -51 -22 0 -157 71 -192
101 -19 16 -26 26 -16 23 9 -3 17 -10 17 -14z m-70 0 c13 -8 13 -10 -2 -10 -9
0 -20 5 -23 10 -8 13 5 13 25 0z m283 -7 c-18 -2 -48 -2 -65 0 -18 2 -4 4 32
4 36 0 50 -2 33 -4z m751 -11 c3 -5 -1 -9 -9 -9 -8 0 -12 4 -9 9 3 4 7 8 9 8
2 0 6 -4 9 -8z m263 -39 c-3 -10 -5 -2 -5 17 0 19 2 27 5 18 2 -10 2 -26 0
-35z m-1260 21 c-3 -3 -12 -4 -19 -1 -8 3 -5 6 6 6 11 1 17 -2 13 -5z m46 -22
c15 -17 14 -18 -16 -19 -29 -1 -29 -1 -7 6 24 7 24 7 5 19 -11 6 -15 12 -9 12
6 0 18 -8 27 -18z m857 -12 c-8 -5 -10 -10 -5 -10 6 0 3 -5 -5 -10 -24 -16
-31 -12 -18 10 7 11 20 20 28 20 13 0 13 -1 0 -10z m377 -22 c-3 -7 -5 -2 -5
12 0 14 2 19 5 13 2 -7 2 -19 0 -25z m-737 7 c0 -12 -62 -35 -92 -34 l-33 1
35 8 c19 4 46 12 60 18 31 13 30 13 30 7z m-413 -21 c-3 -3 -12 -4 -19 -1 -8
3 -5 6 6 6 11 1 17 -2 13 -5z m559 -6 c4 -6 3 -8 -4 -4 -6 3 -14 0 -19 -8 -4
-8 -15 -16 -23 -18 -8 -2 -21 -10 -28 -18 -10 -11 -12 -12 -6 -1 6 11 3 13
-12 7 -55 -22 -122 -29 -165 -18 l-44 11 44 -5 c57 -6 146 12 202 41 24 13 45
24 46 24 1 1 5 -4 9 -11z m582 -13 c-3 -3 -9 2 -12 12 -6 14 -5 15 5 6 7 -7
10 -15 7 -18z m-1001 9 c-3 -3 -12 -4 -19 -1 -8 3 -5 6 6 6 11 1 17 -2 13 -5z
m106 -11 c-18 -2 -48 -2 -65 0 -18 2 -4 4 32 4 36 0 50 -2 33 -4z m472 -13
c-3 -5 -12 -10 -18 -10 -7 0 -6 4 3 10 19 12 23 12 15 0z m-626 -18 c-4 -29
20 -55 75 -82 33 -17 50 -28 36 -24 -50 13 -101 45 -110 68 -5 13 -14 27 -19
31 -16 10 -13 25 4 19 8 -3 14 -9 14 -12z m176 8 c-11 -5 -29 -9 -40 -9 l-20
0 20 9 c11 5 29 9 40 9 l20 0 -20 -9z m-138 -16 c-3 -3 -12 -4 -19 -1 -8 3 -5
6 6 6 11 1 17 -2 13 -5z m580 0 c-3 -3 -12 -4 -19 -1 -8 3 -5 6 6 6 11 1 17
-2 13 -5z m-534 -11 c-7 -2 -19 -2 -25 0 -7 3 -2 5 12 5 14 0 19 -2 13 -5z
m239 -15 c-21 -8 -157 -8 -197 1 -16 3 25 6 92 6 67 0 114 -3 105 -7z m-347
-26 c-3 -3 -11 0 -18 7 -9 10 -8 11 6 5 10 -3 15 -9 12 -12z m584 4 c-10 -9
-69 -36 -69 -32 0 7 52 35 64 36 5 0 7 -2 5 -4z m-539 -36 c8 -5 11 -10 5 -10
-5 0 -17 5 -25 10 -8 5 -10 10 -5 10 6 0 17 -5 25 -10z m436 -22 c-10 -6 -22
-5 -33 2 -16 10 -15 11 5 7 12 -3 22 -1 22 5 0 5 5 6 11 2 8 -5 6 -10 -5 -16z
m-600 -19 c3 -6 -5 -3 -20 6 -14 10 -26 19 -26 22 0 7 39 -17 46 -28z m554 12
c17 -3 -47 -29 -70 -29 -8 0 1 5 20 12 32 12 26 13 -60 8 -52 -2 -110 0 -127
4 -23 6 7 9 95 8 70 -1 134 -2 142 -3z m-285 -11 c13 -6 15 -9 5 -9 -8 0 -22
4 -30 9 -18 12 -2 12 25 0z m58 -17 c-7 -2 -19 -2 -25 0 -7 3 -2 5 12 5 14 0
19 -2 13 -5z m115 -10 c-16 -2 -40 -2 -55 0 -16 2 -3 4 27 4 30 0 43 -2 28 -4z
m-358 -29 c0 -2 -9 0 -20 6 -11 6 -20 13 -20 16 0 2 9 0 20 -6 11 -6 20 -13
20 -16z m594 -39 c11 -8 31 -15 45 -15 25 0 88 -39 65 -40 -6 0 -17 7 -24 15
-7 8 -26 15 -42 15 -16 0 -41 9 -55 20 -29 23 -18 27 11 5z m-54 -5 c-8 -5
-22 -9 -30 -9 -10 0 -8 3 5 9 27 12 43 12 25 0z m-53 -16 c-3 -3 -12 -4 -19
-1 -8 3 -5 6 6 6 11 1 17 -2 13 -5z m103 -14 c0 -4 -9 -6 -21 -3 -15 4 -17 8
-8 14 14 8 29 3 29 -11z m-340 -10 c54 -5 60 -8 38 -14 -29 -8 -111 7 -138 25
-11 8 -9 8 10 3 14 -4 54 -10 90 -14z m170 10 c-14 -4 -43 -8 -65 -8 l-40 1
40 7 c22 4 51 7 65 8 l25 0 -25 -8z m65 -20 c-57 -11 -177 -19 -170 -11 6 6
117 17 180 18 24 1 21 -1 -10 -7z m193 -8 c2 -7 -2 -10 -12 -6 -9 3 -16 11
-16 16 0 13 23 5 28 -10z m-117 -10 c-7 -2 -18 1 -23 6 -8 8 -4 9 13 5 13 -4
18 -8 10 -11z m74 -13 c5 -5 -5 -4 -23 2 -17 6 -32 13 -32 16 0 7 43 -8 55
-18z m-100 -19 c14 -6 8 -8 -25 -7 -25 1 -56 -2 -70 -6 l-25 -8 25 15 c28 17
64 19 95 6z m225 -20 c-20 -13 -40 -13 -40 0 0 6 12 10 28 10 21 0 24 -2 12
-10z m-87 -17 c-13 -2 -33 -2 -45 0 -13 2 -3 4 22 4 25 0 35 -2 23 -4z m-163
-48 c0 -8 5 -15 12 -15 6 0 9 -3 6 -6 -10 -9 -49 16 -43 27 9 14 25 11 25 -6z"/>
<path d="M344 1596 c-8 -22 3 -33 18 -18 9 9 9 15 0 24 -9 9 -13 7 -18 -6z"/>
<path d="M311 1426 c-11 -14 -5 -46 9 -46 15 0 32 30 26 45 -7 19 -20 19 -35
1z"/>
<path d="M370 759 c0 -5 5 -7 10 -4 6 3 10 8 10 11 0 2 -4 4 -10 4 -5 0 -10
-5 -10 -11z"/>
<path d="M400 730 c0 -5 5 -10 10 -10 6 0 10 5 10 10 0 6 -4 10 -10 10 -5 0
-10 -4 -10 -10z"/>
<path d="M410 700 c0 -5 5 -10 10 -10 6 0 10 5 10 10 0 6 -4 10 -10 10 -5 0
-10 -4 -10 -10z"/>
<path d="M410 660 c0 -5 5 -10 10 -10 6 0 10 5 10 10 0 6 -4 10 -10 10 -5 0
-10 -4 -10 -10z"/>
<path d="M1843 635 c-12 -14 -17 -27 -12 -31 5 -3 9 -1 9 4 0 6 11 13 25 16
14 4 25 13 25 21 0 23 -22 18 -47 -10z"/>
<path d="M1875 590 c-3 -5 -1 -10 4 -10 6 0 11 5 11 10 0 6 -2 10 -4 10 -3 0
-8 -4 -11 -10z"/>
<path d="M1730 474 l-35 -34 52 -51 51 -52 38 36 c31 29 36 39 26 49 -9 9 -18
6 -40 -15 -34 -32 -52 -24 -21 9 14 14 19 29 15 40 -6 15 -10 14 -36 -11 -34
-33 -42 -14 -9 21 12 12 18 27 14 33 -9 16 -16 13 -55 -25z"/>
<path d="M425 450 c-39 -40 -45 -50 -32 -56 9 -3 23 1 32 10 24 23 27 20 24
-25 -3 -30 1 -43 14 -50 15 -9 17 -5 17 25 0 54 8 66 47 66 43 0 40 24 -3 26
-58 2 -58 2 -41 22 20 22 21 32 4 32 -7 0 -35 -22 -62 -50z"/>
<path d="M1673 419 c-7 -7 -7 -23 3 -55 7 -24 11 -44 8 -44 -3 0 -21 11 -41
25 -28 18 -40 22 -50 13 -11 -8 -7 -15 16 -32 16 -12 46 -31 65 -41 52 -28 60
-14 40 66 -18 72 -25 84 -41 68z"/>
<path d="M553 390 c-45 -18 -55 -72 -22 -114 28 -36 80 -36 108 0 34 43 26 86
-20 109 -32 17 -35 17 -66 5z m71 -52 c12 -20 -17 -58 -45 -58 -26 0 -43 35
-29 61 14 24 57 23 74 -3z"/>
<path d="M670 270 c-29 -56 -31 -80 -10 -80 5 0 11 9 15 19 8 26 35 16 35 -13
0 -22 17 -46 33 -46 5 0 6 12 3 28 -5 22 -2 29 16 37 17 7 23 18 23 40 0 24
-7 34 -42 53 l-42 23 -31 -61z m79 -3 c19 -23 -9 -36 -38 -18 -15 10 -7 31 13
31 8 0 19 -6 25 -13z"/>
<path d="M1518 323 c-19 -5 -24 -28 -8 -38 6 -3 10 -33 10 -66 0 -32 4 -59 9
-59 13 0 32 26 24 34 -14 13 32 36 63 31 48 -8 46 4 -9 49 -63 51 -68 53 -89
49z m44 -75 c-9 -9 -12 -7 -12 12 0 19 3 21 12 12 9 -9 9 -15 0 -24z"/>
<path d="M1455 278 c-2 -7 -6 -31 -7 -53 l-3 -40 -25 38 c-33 49 -53 45 -60
-13 l-6 -45 -19 32 c-11 18 -28 33 -37 33 -25 0 -23 -4 23 -70 48 -69 67 -69
71 -2 l3 46 25 -37 c26 -38 44 -47 52 -24 11 28 9 147 -2 147 -6 0 -13 -6 -15
-12z"/>
<path d="M801 209 c-11 -35 -18 -66 -14 -70 11 -9 73 -29 89 -29 30 0 13 29
-21 36 -34 6 -44 17 -26 28 5 4 21 2 34 -3 20 -8 27 -6 31 5 4 10 -4 18 -24
26 -44 15 -37 31 10 23 32 -5 40 -4 40 8 0 8 -12 17 -27 21 -16 3 -38 8 -49
12 -19 5 -24 -2 -43 -57z"/>
<path d="M948 167 c-30 -51 -34 -63 -20 -66 9 -2 18 2 20 8 2 6 17 11 34 11
21 0 31 -6 35 -20 3 -11 13 -20 23 -20 16 0 17 5 10 33 -5 17 -14 51 -20 75
-15 60 -37 55 -82 -21z m51 -16 c-15 -5 -22 6 -14 19 6 9 10 9 16 -1 5 -8 4
-15 -2 -18z"/>
<path d="M1084 204 c3 -9 6 -40 6 -70 0 -41 4 -54 15 -54 11 0 15 11 15 42 l0
42 32 -42 c49 -64 64 -57 60 28 -3 52 -7 70 -18 70 -9 0 -14 -12 -14 -37 l-1
-38 -33 38 c-34 38 -74 52 -62 21z"/>
</g>
</svg>
